<svg width="121" height="24" viewBox="0 0 121 24" fill="none" xmlns="http://www.w3.org/2000/svg">
<rect width="121" height="24" rx="7" fill="#1D3D7B"/>
<path d="M12.9588 16V7.27273H18.4304V8.40625H14.2756V11.0653H18.1449V12.1946H14.2756V14.8665H18.4815V16H12.9588ZM22.5373 16.1278C22.0089 16.1278 21.5373 15.9929 21.1225 15.723C20.7106 15.4503 20.3867 15.0625 20.1509 14.5597C19.918 14.054 19.8015 13.4474 19.8015 12.7401C19.8015 12.0327 19.9194 11.4276 20.1552 10.9247C20.3938 10.4219 20.7205 10.0369 21.1353 9.76989C21.5501 9.50284 22.0202 9.36932 22.5458 9.36932C22.9521 9.36932 23.2788 9.4375 23.5259 9.57386C23.7759 9.70739 23.9691 9.86364 24.1055 10.0426C24.2447 10.2216 24.3526 10.3793 24.4293 10.5156H24.506V7.27273H25.7802V16H24.5359V14.9815H24.4293C24.3526 15.1207 24.2418 15.2798 24.0969 15.4588C23.9549 15.6378 23.7589 15.794 23.5089 15.9276C23.2589 16.0611 22.935 16.1278 22.5373 16.1278ZM22.8185 15.0412C23.185 15.0412 23.4947 14.9446 23.7475 14.7514C24.0032 14.5554 24.1964 14.2841 24.3271 13.9375C24.4606 13.5909 24.5273 13.1875 24.5273 12.7273C24.5273 12.2727 24.462 11.875 24.3313 11.5341C24.2006 11.1932 24.0089 10.9276 23.756 10.7372C23.5032 10.5469 23.1907 10.4517 22.8185 10.4517C22.435 10.4517 22.1154 10.5511 21.8597 10.75C21.604 10.9489 21.4109 11.2202 21.2802 11.5639C21.1523 11.9077 21.0884 12.2955 21.0884 12.7273C21.0884 13.1648 21.1538 13.5582 21.2844 13.9077C21.4151 14.2571 21.6083 14.5341 21.864 14.7386C22.1225 14.9403 22.4407 15.0412 22.8185 15.0412ZM27.5987 16V9.45455H28.8729V16H27.5987ZM28.2422 8.4446C28.0206 8.4446 27.8303 8.37074 27.6712 8.22301C27.5149 8.07244 27.4368 7.89347 27.4368 7.68608C27.4368 7.47585 27.5149 7.29687 27.6712 7.14915C27.8303 6.99858 28.0206 6.9233 28.2422 6.9233C28.4638 6.9233 28.6527 6.99858 28.8089 7.14915C28.968 7.29687 29.0476 7.47585 29.0476 7.68608C29.0476 7.89347 28.968 8.07244 28.8089 8.22301C28.6527 8.37074 28.4638 8.4446 28.2422 8.4446ZM33.6424 9.45455V10.4773H30.0671V9.45455H33.6424ZM31.0259 7.88636H32.3001V14.0781C32.3001 14.3253 32.337 14.5114 32.4109 14.6364C32.4847 14.7585 32.5799 14.8423 32.6964 14.8878C32.8157 14.9304 32.945 14.9517 33.0842 14.9517C33.1864 14.9517 33.2759 14.9446 33.3526 14.9304C33.4293 14.9162 33.489 14.9048 33.5316 14.8963L33.7617 15.9489C33.6879 15.9773 33.5827 16.0057 33.4464 16.0341C33.31 16.0653 33.1396 16.0824 32.935 16.0852C32.5998 16.0909 32.2873 16.0312 31.9975 15.9062C31.7077 15.7812 31.4734 15.5881 31.2944 15.3267C31.1154 15.0653 31.0259 14.7372 31.0259 14.3423V7.88636ZM35.0518 16V9.45455H36.326V16H35.0518ZM35.6953 8.4446C35.4737 8.4446 35.2834 8.37074 35.1243 8.22301C34.968 8.07244 34.8899 7.89347 34.8899 7.68608C34.8899 7.47585 34.968 7.29687 35.1243 7.14915C35.2834 6.99858 35.4737 6.9233 35.6953 6.9233C35.9169 6.9233 36.1058 6.99858 36.2621 7.14915C36.4212 7.29687 36.5007 7.47585 36.5007 7.68608C36.5007 7.89347 36.4212 8.07244 36.2621 8.22301C36.1058 8.37074 35.9169 8.4446 35.6953 8.4446ZM39.3143 12.1136V16H38.0401V9.45455H39.2631V10.5199H39.3441C39.4947 10.1733 39.7305 9.89489 40.0515 9.68466C40.3754 9.47443 40.783 9.36932 41.2745 9.36932C41.7205 9.36932 42.1112 9.46307 42.4464 9.65057C42.7816 9.83523 43.0415 10.1108 43.2262 10.4773C43.4109 10.8437 43.5032 11.2969 43.5032 11.8366V16H42.229V11.9901C42.229 11.5156 42.1055 11.1449 41.8583 10.8778C41.6112 10.608 41.2717 10.473 40.8398 10.473C40.5444 10.473 40.2816 10.5369 40.0515 10.6648C39.8242 10.7926 39.6438 10.9801 39.5103 11.2273C39.3796 11.4716 39.3143 11.767 39.3143 12.1136ZM47.9563 18.5909C47.4364 18.5909 46.989 18.5227 46.614 18.3864C46.2418 18.25 45.9379 18.0696 45.7021 17.8452C45.4663 17.6207 45.2901 17.375 45.1737 17.108L46.2688 16.6562C46.3455 16.7812 46.4478 16.9134 46.5756 17.0526C46.7063 17.1946 46.8825 17.3153 47.104 17.4148C47.3285 17.5142 47.6168 17.5639 47.9691 17.5639C48.4521 17.5639 48.8512 17.446 49.1665 17.2102C49.4819 16.9773 49.6396 16.6051 49.6396 16.0938V14.8068H49.5586C49.4819 14.946 49.3711 15.1009 49.2262 15.2713C49.0842 15.4418 48.8881 15.5895 48.6381 15.7145C48.3881 15.8395 48.0629 15.902 47.6623 15.902C47.1452 15.902 46.6793 15.7812 46.2646 15.5398C45.8526 15.2955 45.5259 14.9361 45.2844 14.4616C45.0458 13.9844 44.9265 13.3977 44.9265 12.7017C44.9265 12.0057 45.0444 11.4091 45.2802 10.9119C45.5188 10.4148 45.8455 10.0341 46.2603 9.76989C46.6751 9.50284 47.1452 9.36932 47.6708 9.36932C48.0771 9.36932 48.4052 9.4375 48.6552 9.57386C48.9052 9.70739 49.0998 9.86364 49.239 10.0426C49.381 10.2216 49.4904 10.3793 49.5671 10.5156H49.6609V9.45455H50.9094V16.1449C50.9094 16.7074 50.7788 17.169 50.5174 17.5298C50.256 17.8906 49.9023 18.1577 49.4563 18.331C49.0131 18.5043 48.5131 18.5909 47.9563 18.5909ZM47.9435 14.8452C48.31 14.8452 48.6197 14.7599 48.8725 14.5895C49.1282 14.4162 49.3214 14.169 49.4521 13.848C49.5856 13.5241 49.6523 13.1364 49.6523 12.6847C49.6523 12.2443 49.587 11.8565 49.4563 11.5213C49.3256 11.1861 49.1339 10.9247 48.881 10.7372C48.6282 10.5469 48.3157 10.4517 47.9435 10.4517C47.56 10.4517 47.2404 10.5511 46.9847 10.75C46.729 10.946 46.5359 11.2131 46.4052 11.5511C46.2773 11.8892 46.2134 12.267 46.2134 12.6847C46.2134 13.1136 46.2788 13.4901 46.4094 13.8139C46.5401 14.1378 46.7333 14.3906 46.989 14.5724C47.2475 14.7543 47.5657 14.8452 47.9435 14.8452ZM55.8963 7.27273H57.4943L60.2727 14.0568H60.375L63.1534 7.27273H64.7514V16H63.4986V9.68466H63.4176L60.8438 15.9872H59.804L57.2301 9.6804H57.1491V16H55.8963V7.27273ZM69.3207 16.1321C68.707 16.1321 68.1715 15.9915 67.7141 15.7102C67.2567 15.429 66.9016 15.0355 66.6488 14.5298C66.396 14.0241 66.2695 13.4332 66.2695 12.7571C66.2695 12.0781 66.396 11.4844 66.6488 10.9759C66.9016 10.4673 67.2567 10.0724 67.7141 9.79119C68.1715 9.50994 68.707 9.36932 69.3207 9.36932C69.9343 9.36932 70.4698 9.50994 70.9272 9.79119C71.3846 10.0724 71.7397 10.4673 71.9925 10.9759C72.2454 11.4844 72.3718 12.0781 72.3718 12.7571C72.3718 13.4332 72.2454 14.0241 71.9925 14.5298C71.7397 15.0355 71.3846 15.429 70.9272 15.7102C70.4698 15.9915 69.9343 16.1321 69.3207 16.1321ZM69.3249 15.0625C69.7227 15.0625 70.0522 14.9574 70.3136 14.7472C70.5749 14.5369 70.7681 14.2571 70.8931 13.9077C71.021 13.5582 71.0849 13.1733 71.0849 12.7528C71.0849 12.3352 71.021 11.9517 70.8931 11.6023C70.7681 11.25 70.5749 10.9673 70.3136 10.7543C70.0522 10.5412 69.7227 10.4347 69.3249 10.4347C68.9244 10.4347 68.592 10.5412 68.3278 10.7543C68.0664 10.9673 67.8718 11.25 67.744 11.6023C67.619 11.9517 67.5565 12.3352 67.5565 12.7528C67.5565 13.1733 67.619 13.5582 67.744 13.9077C67.8718 14.2571 68.0664 14.5369 68.3278 14.7472C68.592 14.9574 68.9244 15.0625 69.3249 15.0625ZM76.2443 16.1278C75.7159 16.1278 75.2443 15.9929 74.8295 15.723C74.4176 15.4503 74.0938 15.0625 73.858 14.5597C73.625 14.054 73.5085 13.4474 73.5085 12.7401C73.5085 12.0327 73.6264 11.4276 73.8622 10.9247C74.1009 10.4219 74.4276 10.0369 74.8423 9.76989C75.2571 9.50284 75.7273 9.36932 76.2528 9.36932C76.6591 9.36932 76.9858 9.4375 77.233 9.57386C77.483 9.70739 77.6761 9.86364 77.8125 10.0426C77.9517 10.2216 78.0597 10.3793 78.1364 10.5156H78.2131V7.27273H79.4872V16H78.2429V14.9815H78.1364C78.0597 15.1207 77.9489 15.2798 77.804 15.4588C77.6619 15.6378 77.4659 15.794 77.2159 15.9276C76.9659 16.0611 76.642 16.1278 76.2443 16.1278ZM76.5256 15.0412C76.892 15.0412 77.2017 14.9446 77.4545 14.7514C77.7102 14.5554 77.9034 14.2841 78.0341 13.9375C78.1676 13.5909 78.2344 13.1875 78.2344 12.7273C78.2344 12.2727 78.169 11.875 78.0384 11.5341C77.9077 11.1932 77.7159 10.9276 77.4631 10.7372C77.2102 10.5469 76.8977 10.4517 76.5256 10.4517C76.142 10.4517 75.8224 10.5511 75.5668 10.75C75.3111 10.9489 75.1179 11.2202 74.9872 11.5639C74.8594 11.9077 74.7955 12.2955 74.7955 12.7273C74.7955 13.1648 74.8608 13.5582 74.9915 13.9077C75.1222 14.2571 75.3153 14.5341 75.571 14.7386C75.8295 14.9403 76.1477 15.0412 76.5256 15.0412ZM84.1268 16.1321C83.4819 16.1321 82.9265 15.9943 82.4606 15.7188C81.9975 15.4403 81.6396 15.0497 81.3867 14.5469C81.1367 14.0412 81.0117 13.4489 81.0117 12.7699C81.0117 12.0994 81.1367 11.5085 81.3867 10.9972C81.6396 10.4858 81.9918 10.0866 82.4435 9.79972C82.8981 9.51278 83.4293 9.36932 84.0373 9.36932C84.4066 9.36932 84.7646 9.4304 85.1112 9.55256C85.4577 9.67472 85.7688 9.86648 86.0444 10.1278C86.32 10.3892 86.5373 10.7287 86.6964 11.1463C86.8555 11.5611 86.935 12.0653 86.935 12.6591V13.1108H81.7319V12.1562H85.6864C85.6864 11.821 85.6183 11.5241 85.4819 11.2656C85.3455 11.0043 85.1538 10.7983 84.9066 10.6477C84.6623 10.4972 84.3754 10.4219 84.0458 10.4219C83.6879 10.4219 83.3754 10.5099 83.1083 10.6861C82.8441 10.8594 82.6396 11.0866 82.4947 11.3679C82.3526 11.6463 82.2816 11.9489 82.2816 12.2756V13.0213C82.2816 13.4588 82.3583 13.831 82.5117 14.1378C82.668 14.4446 82.8853 14.679 83.1637 14.8409C83.4421 15 83.7674 15.0795 84.1396 15.0795C84.381 15.0795 84.6012 15.0455 84.8001 14.9773C84.9989 14.9062 85.1708 14.8011 85.3157 14.6619C85.4606 14.5227 85.5714 14.3509 85.6481 14.1463L86.854 14.3636C86.7575 14.7187 86.5842 15.0298 86.3342 15.2969C86.087 15.5611 85.7759 15.767 85.4009 15.9148C85.0288 16.0597 84.604 16.1321 84.1268 16.1321ZM99.5657 11.6364C99.5657 12.5966 99.381 13.4105 99.0117 14.0781C98.6424 14.7457 98.1424 15.2528 97.5117 15.5994C96.8839 15.946 96.1793 16.1193 95.3981 16.1193C94.614 16.1193 93.908 15.9446 93.2802 15.5952C92.6523 15.2457 92.1538 14.7386 91.7844 14.0739C91.418 13.4062 91.2347 12.5937 91.2347 11.6364C91.2347 10.6761 91.418 9.86222 91.7844 9.1946C92.1538 8.52699 92.6523 8.01989 93.2802 7.6733C93.908 7.3267 94.614 7.15341 95.3981 7.15341C96.1793 7.15341 96.8839 7.3267 97.5117 7.6733C98.1424 8.01989 98.6424 8.52699 99.0117 9.1946C99.381 9.86222 99.5657 10.6761 99.5657 11.6364ZM97.4094 11.6364C97.4094 11.0682 97.3285 10.5881 97.1665 10.196C97.0075 9.80398 96.7773 9.5071 96.4762 9.3054C96.1779 9.10369 95.8185 9.00284 95.3981 9.00284C94.9805 9.00284 94.6211 9.10369 94.32 9.3054C94.0188 9.5071 93.7873 9.80398 93.6254 10.196C93.4663 10.5881 93.3867 11.0682 93.3867 11.6364C93.3867 12.2045 93.4663 12.6847 93.6254 13.0767C93.7873 13.4687 94.0188 13.7656 94.32 13.9673C94.6211 14.169 94.9805 14.2699 95.3981 14.2699C95.8185 14.2699 96.1779 14.169 96.4762 13.9673C96.7773 13.7656 97.0075 13.4687 97.1665 13.0767C97.3285 12.6847 97.4094 12.2045 97.4094 11.6364ZM108.225 7.27273V16H106.435L102.962 10.9631H102.907V16H100.797V7.27273H102.613L106.047 12.3011H106.12V7.27273H108.225Z" fill="white"/>
</svg>
